<?xml version="1.0" encoding="utf-8"?>
<!-- Generator: Adobe Illustrator 23.0.2, SVG Export Plug-In . SVG Version: 6.00 Build 0)  -->
<svg version="1.1" id="Capa_1" xmlns="http://www.w3.org/2000/svg" xmlns:xlink="http://www.w3.org/1999/xlink" x="0px" y="0px"
	 viewBox="0 0 651.97 425.2" style="enable-background:new 0 0 651.97 425.2;" xml:space="preserve">
<style type="text/css">
	.st0{fill:#858585;}
	.st1{fill:#D57C1B;}
	.st2{fill:#868686;}
	.st3{fill:#878787;}
	.st4{fill:#11558A;}
	.st5{fill:#D67D1E;}
	.st6{fill:#D67E1F;}
	.st7{fill:#0D5289;}
</style>
<g>
	<path class="st0" d="M323.12,120.49c71.96,0,143.92,0,215.88,0c2.15,0,1.89-0.27,1.89,1.9c0.01,22.87-0.01,45.75,0.04,68.62
		c0,1.38-0.34,1.73-1.72,1.73c-60.57-0.04-121.14-0.03-181.71-0.03c-2.23,0-2.23,0-2.23,2.3c0,46.7-0.01,93.41,0.03,140.11
		c0,1.38-0.24,1.83-1.76,1.83c-19.49-0.06-38.98-0.06-58.47-0.01c-1.41,0-1.81-0.29-1.81-1.77c0.05-46.85,0.04-93.69,0.03-140.54
		c0-2.14,0.25-1.92-1.89-1.92c-61.38,0-122.76,0-184.14,0c-2.44,0-2.11,0.18-2.11-2.17c-0.01-22.68-0.01-45.37,0-68.05
		c0-2.27-0.28-2,1.95-2C179.11,120.49,251.12,120.49,323.12,120.49z"/>
	<path class="st1" d="M377.62,333.75c-0.36-0.44-0.19-0.94-0.19-1.39c-0.01-37.51,0-75.01-0.04-112.52c0-1.37,0.43-1.61,1.68-1.61
		c46.99,0.03,93.98,0.04,140.97,0.01c6.38,0,12.76-0.21,19.06-1.42c3.14-0.6,6.21-1.44,9.16-2.66c9.38-3.88,14.54-11.13,16.65-20.83
		c1.18-5.43,1.53-10.93,1.53-16.47c-0.02-15.49,0.19-30.98-0.13-46.46c-0.1-4.77-0.79-9.48-2.1-14.09
		c-2.95-10.37-9.91-16.61-20.08-19.58c-6.09-1.78-12.34-2.34-18.63-2.52c-4.38-0.12-8.76-0.12-13.15-0.12
		c-49.04-0.01-98.08,0-147.12,0c-1.87,0-1.87,0-1.87-1.81c0-13.82,0.01-27.64-0.03-41.46c0-1.2,0.21-1.6,1.53-1.6
		c52.23,0.05,104.46,0.07,156.69,0.04c11.84-0.01,23.61,0.63,35.26,2.86c10.26,1.97,20.09,5.13,29.08,10.57
		c13.66,8.28,22.16,20.45,26.75,35.56c2.58,8.52,3.98,17.26,4.28,26.14c0.66,19.91,0.36,39.84,0.19,59.75
		c-0.1,11.85-1.72,23.54-5.69,34.8c-6.75,19.12-20.22,31.24-39.2,37.6c-8.71,2.92-17.67,4.55-26.79,5.49
		c-8.54,0.88-17.11,1.1-25.69,1.1c-32.17-0.02-64.34,0-96.5-0.04c-1.28,0-1.92,0.43-2.57,1.47c-13.96,22.6-27.96,45.18-41.97,67.75
		C378.4,332.81,378.21,333.43,377.62,333.75z"/>
	<path class="st2" d="M189.14,358.82c1.54-1.3,2.91-1.97,4.58-1.96c1.48,0.02,2.75,0.48,3.64,1.64c0.56,0.73,0.82,0.74,1.47,0.08
		c1.73-1.77,3.87-2.17,6.17-1.34c1.68,0.6,2.58,1.89,2.78,3.65c0.37,3.32,0.11,6.66,0.2,9.99c0.02,0.68-0.23,0.88-0.91,0.92
		c-2.76,0.15-2.73,0.17-2.77-2.62c-0.03-2.19,0.18-4.38-0.16-6.56c-0.19-1.23-0.61-2.21-2.03-2.35c-1.37-0.14-2.56,0.54-3.1,1.81
		c-0.34,0.8-0.41,1.66-0.41,2.52c0,2-0.04,4,0.02,6c0.03,0.94-0.26,1.21-1.2,1.21c-2.5-0.02-2.5,0.03-2.5-2.45
		c0-1.95,0.04-3.91-0.03-5.86c-0.08-2.09-0.88-3.14-2.31-3.24c-1.71-0.11-2.84,0.88-3.19,2.95c-0.41,2.46-0.15,4.94-0.16,7.42
		c0,0.96-0.3,1.19-1.22,1.18c-2.49-0.02-2.49,0.02-2.49-2.47c0-3.62,0.03-7.24-0.02-10.86c-0.01-0.98,0.23-1.43,1.26-1.28
		c0.37,0.05,0.77,0.06,1.14,0C188.91,357.03,189.39,357.41,189.14,358.82z"/>
	<path class="st3" d="M214.91,370.46c0,1.92-0.04,3.68,0.02,5.43c0.03,0.94-0.17,1.34-1.23,1.33c-2.47-0.04-2.47,0.02-2.47-2.5
		c0-5.42,0.03-10.84-0.02-16.27c-0.01-1.01,0.3-1.39,1.29-1.25c0.33,0.05,0.66,0.01,1,0.01c0.86-0.01,1.9-0.23,1.36,1.37
		c4.38-2.44,7.52-2.16,9.9,0.74c2.42,2.95,2.36,7.58-0.12,10.39C222.06,372.61,218.86,372.9,214.91,370.46z M214.82,364.53
		c0.03,2.64,1.62,4.27,4.13,4.21c2.2-0.05,3.91-1.88,3.93-4.22c0.02-2.51-1.72-4.3-4.14-4.26
		C216.3,360.3,214.79,361.94,214.82,364.53z"/>
	<path class="st4" d="M343.28,372.33c-5.47-0.02-9.18-2.51-10.64-6.57c-1.55-4.28-0.37-9.02,2.91-11.71
		c3.59-2.95,8.66-3.31,12.69-0.92c0.29,0.17,0.57,0.35,0.84,0.54c2.29,1.63,2.23,2.52-0.21,4.01c-0.57,0.35-0.76-0.02-1.06-0.3
		c-1.35-1.21-2.9-1.99-4.72-2.16c-2.96-0.26-5.71,1.34-6.83,3.94c-1.12,2.61-0.45,5.91,1.59,7.77c2.1,1.91,5.58,2.27,8.14,0.84
		c0.25-0.14,0.49-0.29,0.72-0.46c1.89-1.33,1.83-1.28,3.46,0.25c0.82,0.77,0.7,1.15-0.08,1.82
		C347.86,371.32,345.33,372.35,343.28,372.33z"/>
	<path class="st4" d="M357.6,358.64c0.94-0.68,1.65-1.15,2.47-1.45c3.3-1.2,6.5,0.64,6.73,4.13c0.21,3.22,0.08,6.47,0.11,9.7
		c0.01,0.51-0.14,0.73-0.71,0.79c-2.92,0.31-2.91,0.32-2.94-2.55c-0.02-2.23,0.14-4.47-0.17-6.7c-0.16-1.12-0.56-2.04-1.8-2.26
		c-1.24-0.22-2.24,0.2-2.94,1.27c-0.6,0.92-0.74,1.94-0.75,3c-0.01,2.09-0.04,4.19,0.01,6.28c0.02,0.76-0.23,0.94-0.97,0.96
		c-2.73,0.05-2.73,0.08-2.73-2.63c0-5.43,0.02-10.85-0.02-16.28c-0.01-0.99,0.13-1.44,1.29-1.41c2.4,0.07,2.4,0,2.4,2.39
		C357.6,355.4,357.6,356.91,357.6,358.64z"/>
	<path class="st2" d="M270.14,364.54c0,2.1-0.03,4.19,0.01,6.29c0.01,0.74-0.22,1.04-0.98,0.98c-0.61-0.05-1.24,0-1.86-0.02
		c-0.23-0.01-0.63-0.05-0.65-0.14c-0.43-1.87-1.28-0.43-1.81-0.17c-3.99,2.02-8.74-0.52-9.78-5.27c-0.79-3.64,1.03-7.55,4.18-8.83
		c2.06-0.84,4.1-0.69,6.03,0.44c0.52,0.3,1,1.07,1.3-0.28c0.15-0.69,1.09-0.31,1.66-0.31c2.16-0.01,1.87-0.3,1.89,1.88
		C270.15,360.92,270.14,362.73,270.14,364.54z M258.62,364.44c-0.01,2.52,1.73,4.41,4.04,4.39c2.3-0.03,3.98-1.83,4.01-4.29
		c0.02-2.53-1.69-4.37-4.06-4.36C260.3,360.18,258.63,361.97,258.62,364.44z"/>
	<path class="st4" d="M418.93,357.33c-1.83,2-3.51,3.92-5.27,5.75c-0.71,0.74-0.84,1.19-0.02,2.02c2.07,2.08,4.02,4.28,6.25,6.69
		c-1.61,0-2.91-0.01-4.2,0.01c-0.53,0.01-0.71-0.42-0.99-0.72c-1.81-1.92-3.61-3.85-5.62-6c0,2.15-0.02,3.99,0.01,5.82
		c0.01,0.66-0.16,0.88-0.86,0.91c-2.83,0.12-2.83,0.15-2.83-2.67c0-5.38,0.04-10.75-0.03-16.13c-0.01-1.17,0.26-1.68,1.48-1.49
		c0.37,0.06,0.77,0.05,1.14,0c0.91-0.13,1.12,0.26,1.1,1.12c-0.05,3.37-0.02,6.75-0.02,10.54c1.28-1.4,2.52-2.43,3.35-3.74
		C414,356.94,416.25,356.98,418.93,357.33z"/>
	<path class="st4" d="M373.45,365.55c0.16,3,3.65,4.41,6.08,2.95c1.96-1.18,3.12-0.2,4.58,0.54c-2.16,2.78-5.49,3.8-8.98,2.78
		c-2.93-0.86-5-3.42-5.23-6.46c-0.26-3.45,1.33-6.4,4.19-7.79c5.25-2.54,11.3,1.36,11.13,7.14c-0.03,0.88-0.48,0.86-1.09,0.86
		C380.57,365.55,377.01,365.55,373.45,365.55z M373.62,362.69c2.38,0,4.61,0.01,6.85-0.01c0.29,0,0.77,0.19,0.84-0.25
		c0.04-0.27-0.19-0.62-0.38-0.87C379.11,359.1,374.95,359.66,373.62,362.69z"/>
	<path class="st3" d="M181.62,368.99c-2.02,2.97-6.13,4.03-9.71,2.55c-3.28-1.36-5.09-4.93-4.33-8.57c0.78-3.76,3.57-6.08,7.35-6.09
		c4.55-0.02,7.68,3.04,7.87,7.64c0.03,0.85-0.3,1.05-1.08,1.04c-3.24-0.03-6.48,0.03-9.71-0.04c-1.14-0.02-1.16,0.38-0.78,1.22
		c0.91,1.98,3.66,3.09,5.74,1.8C178.86,367.38,180.13,368.16,181.62,368.99z M171.12,362.68c2.42,0,4.66,0,6.89,0
		c0.27,0,0.62,0.1,0.79-0.17c0.22-0.35-0.08-0.64-0.27-0.89c-1.04-1.33-2.44-1.75-4.06-1.55
		C172.95,360.25,171.81,360.96,171.12,362.68z"/>
	<path class="st3" d="M232.12,365.55c0.75,2.97,3.5,4.45,6.02,3c1.9-1.1,3.16-0.38,4.65,0.43c-1.91,2.92-5.95,4.02-9.55,2.63
		c-3.31-1.28-5.2-4.84-4.52-8.48c0.7-3.7,3.48-6.16,7.09-6.25c4.74-0.12,7.95,2.9,8.17,7.62c0.05,0.99-0.44,1.06-1.21,1.05
		C239.27,365.53,235.75,365.55,232.12,365.55z M232.36,362.59c0.3,0.04,0.48,0.08,0.67,0.08c2.05,0.01,4.1,0.01,6.14,0
		c0.3,0,0.72,0.17,0.86-0.27c0.12-0.36-0.18-0.62-0.38-0.88C237.85,359.15,233.83,359.65,232.36,362.59z"/>
	<path class="st3" d="M320.86,369.06c-2.08,2.83-5.76,3.87-9.33,2.64c-3.1-1.07-4.97-4.02-4.83-7.62c0.13-3.33,2.37-6.16,5.54-6.99
		c5.09-1.33,9.66,2.16,9.82,7.47c0.03,0.88-0.37,1.01-1.11,1c-3.19-0.03-6.38,0.05-9.57-0.04c-1.36-0.04-1.26,0.49-0.81,1.38
		c0.98,1.9,3.52,2.66,5.74,1.71C318.48,367.68,318.87,367.72,320.86,369.06z M310.37,362.68c2.4,0,4.63,0.01,6.85-0.01
		c0.3,0,0.72,0.17,0.87-0.26c0.13-0.36-0.17-0.62-0.37-0.88C315.93,359.15,311.92,359.65,310.37,362.68z"/>
	<path class="st5" d="M431.61,361.98c0-2.9,0.03-5.81-0.02-8.71c-0.01-0.87,0.13-1.3,1.14-1.23c2.08,0.13,4.18-0.12,6.26,0.27
		c2.76,0.53,4.38,2.52,4.38,5.47c0,2.83-1.76,4.97-4.48,5.43c-0.66,0.11-1.34,0.28-1.98,0.21c-1.34-0.15-1.69,0.38-1.61,1.66
		c0.11,1.8-0.02,3.62,0.05,5.42c0.03,0.94-0.15,1.34-1.22,1.32c-2.52-0.05-2.52,0.01-2.52-2.56
		C431.61,366.84,431.61,364.41,431.61,361.98z M435.3,357.78c0.23,0.78-0.64,2.16,1.3,2.04c2.12-0.13,3.09-0.68,3.05-2.11
		c-0.04-1.38-0.93-1.85-3.02-2C434.72,355.57,435.49,356.9,435.3,357.78z"/>
	<path class="st6" d="M453.48,372.13c-4.25-0.02-7.54-3.36-7.53-7.65c0.01-4.25,3.37-7.61,7.6-7.6c4.31,0.02,7.78,3.45,7.73,7.67
		C461.22,368.86,457.84,372.15,453.48,372.13z M449.63,364.53c0.01,2.56,1.6,4.25,3.99,4.24c2.3-0.01,4.03-1.86,4.01-4.29
		c-0.02-2.5-1.68-4.24-4.05-4.23C451.21,360.25,449.62,361.97,449.63,364.53z"/>
	<path class="st5" d="M474.09,358.8c1.74-1.34,3.15-2.03,4.88-1.93c2.33,0.14,4.2,1.73,4.45,4.05c0.36,3.37,0.08,6.76,0.16,10.13
		c0.01,0.55-0.23,0.7-0.76,0.75c-2.88,0.28-2.87,0.29-2.9-2.61c-0.02-2.24,0.15-4.48-0.18-6.7c-0.16-1.07-0.55-1.94-1.72-2.17
		c-1.17-0.24-2.17,0.09-2.89,1.09c-0.67,0.92-0.87,2-0.87,3.11c-0.01,2.05-0.04,4.1,0.01,6.14c0.02,0.81-0.12,1.17-1.07,1.16
		c-2.63-0.01-2.63,0.05-2.63-2.61c0-3.52,0.06-7.05-0.03-10.57c-0.03-1.24,0.38-1.62,1.52-1.44c0.28,0.04,0.57,0.02,0.86,0
		C473.82,357.14,474.66,357.11,474.09,358.8z"/>
	<path class="st2" d="M294.73,362.57c-0.06,1.52,0.11,3.33-0.3,5.12c-0.71,3.05-3.09,4.6-6.85,4.42c-2.94-0.15-5.1-2.17-5.48-5.03
		c-0.4-2.99-0.15-5.99-0.25-8.98c-0.02-0.69,0.26-0.86,0.92-0.9c2.77-0.15,2.77-0.17,2.77,2.6c0,2-0.05,4,0.05,6
		c0.1,1.9,0.97,2.85,2.46,2.95c1.74,0.12,2.86-0.77,2.93-2.54c0.1-2.52,0.11-5.05,0.06-7.57c-0.02-1.08,0.22-1.5,1.4-1.46
		c2.28,0.09,2.28,0.01,2.28,2.25C294.73,360.38,294.73,361.33,294.73,362.57z"/>
	<path class="st4" d="M395.71,372.14c-3.45,0.01-6.02-1.2-7.52-4.12c-1.41-2.73-1.16-5.44,0.61-7.95c2.78-3.95,9.6-4.33,12.88-0.79
		c0.59,0.64,0.58,0.92-0.22,1.31c-1.22,0.6-2.19,1.27-3.67,0.14c-1.47-1.12-4.17-0.55-5.45,0.65c-1.3,1.21-1.72,3.18-1.03,4.86
		c1,2.44,4.47,3.54,6.77,1.82c1.3-0.97,1.91-0.36,2.9,0.19c1.19,0.66,1.19,1.18,0.17,2.01
		C399.48,371.62,397.59,372.19,395.71,372.14z"/>
	<path class="st3" d="M162.34,363.92c0,2.19-0.06,4.39,0.03,6.57c0.05,1.12-0.35,1.35-1.38,1.32c-2.37-0.05-2.37,0-2.37-2.31
		c0-4.19-0.02-8.38,0.02-12.58c0.01-0.92-0.25-1.26-1.2-1.22c-0.73,0.03-1.86,0.4-2.13-0.24c-0.36-0.85-0.15-1.96-0.13-2.96
		c0.01-0.58,0.51-0.46,0.86-0.46c3-0.01,6,0.01,9-0.02c0.71-0.01,0.94,0.29,0.88,0.93c-0.01,0.14,0,0.29,0,0.43
		c-0.01,2.83,0.15,2.34-2.23,2.3c-1.05-0.02-1.42,0.25-1.37,1.35C162.4,359.35,162.34,361.64,162.34,363.92z"/>
	<path class="st6" d="M487.7,366.1c0-1.62-0.02-3.24,0.01-4.85c0.01-0.62-0.1-1.01-0.84-0.93c-1.58,0.17-0.96-1.04-1.03-1.74
		c-0.07-0.68-0.23-1.55,0.97-1.36c0.83,0.13,0.92-0.33,0.91-1c-0.03-1.19,0.01-2.38-0.02-3.57c-0.02-0.61,0.2-0.8,0.82-0.84
		c2.87-0.21,2.87-0.24,2.87,2.66c0,0.43,0.03,0.86-0.01,1.28c-0.09,0.98,0.03,1.71,1.31,1.47c0.64-0.12,0.82,0.23,0.8,0.82
		c-0.05,1.15,0.47,2.61-1.66,2.33c-0.62-0.08-0.42,0.63-0.42,1c-0.02,3.05-0.07,6.09,0.02,9.14c0.03,1.12-0.34,1.34-1.37,1.32
		c-2.33-0.06-2.34-0.01-2.34-2.3C487.7,368.38,487.7,367.24,487.7,366.1z"/>
	<path class="st3" d="M274.1,366.09c0-1.57-0.02-3.14,0.01-4.72c0.01-0.64-0.02-1.12-0.88-1.06c-1.54,0.11-0.92-1.09-1.02-1.81
		c-0.11-0.77-0.05-1.48,1.06-1.3c0.75,0.12,0.85-0.32,0.84-0.94c-0.03-1.14,0.02-2.29-0.02-3.43c-0.02-0.68,0.13-1.01,0.93-1.04
		c2.77-0.13,2.77-0.16,2.77,2.64c0,0.57,0.04,1.15-0.01,1.71c-0.07,0.78,0.18,1.19,1.02,1.06c1.28-0.21,1.11,0.71,1.05,1.44
		c-0.06,0.68,0.49,1.82-0.97,1.67c-0.92-0.09-1.12,0.3-1.11,1.15c0.04,3-0.03,6,0.04,9c0.03,1.06-0.26,1.39-1.35,1.36
		c-2.36-0.06-2.36,0-2.36-2.3C274.1,368.38,274.1,367.23,274.1,366.09z"/>
	<path class="st2" d="M249.14,358.76c1.04-1.31,2.03-1.96,3.39-1.87c0.84,0.06,1.29,0.34,0.88,1.24c-0.43,0.95-0.38,2.19-2.14,2.03
		c-0.98-0.09-1.34,1.16-1.49,2.15c-0.41,2.65-0.22,5.32-0.2,7.98c0.01,1.14-0.21,1.59-1.46,1.54c-2.23-0.1-2.23-0.02-2.23-2.31
		c0-3.62,0.05-7.24-0.03-10.85c-0.03-1.23,0.38-1.64,1.53-1.45C248.19,357.35,249.53,356.6,249.14,358.76z"/>
	<path class="st2" d="M301.02,358.64c1.02-1.33,2.09-1.91,3.51-1.73c0.67,0.08,0.99,0.4,0.69,1.04c-0.45,0.96-0.3,2.34-2.15,2.19
		c-1.01-0.08-1.37,1.14-1.53,2.13c-0.43,2.7-0.22,5.42-0.2,8.12c0.01,1.12-0.29,1.59-1.42,1.41c-0.28-0.05-0.58-0.04-0.85,0
		c-1.11,0.17-1.46-0.25-1.44-1.39c0.07-3.95,0.02-7.9,0.03-11.85c0-0.61-0.24-1.54,0.88-1.32
		C299.43,357.42,301,356.32,301.02,358.64z"/>
	<path class="st6" d="M463.68,364.43c0-2.09,0.03-4.18-0.02-6.27c-0.02-0.74,0.21-0.95,0.96-0.97c2.74-0.07,2.74-0.1,2.74,2.62
		c0,3.61-0.03,7.22,0.02,10.82c0.01,0.94-0.27,1.2-1.2,1.19c-2.5-0.02-2.5,0.02-2.5-2.41C463.68,367.75,463.68,366.09,463.68,364.43
		z"/>
	<path class="st6" d="M465.52,351.21c1.28,0.01,2.24,1.09,2.2,2.46c-0.04,1.28-1.03,2.29-2.25,2.28c-1.22-0.02-2.29-1.2-2.24-2.48
		C463.27,352.21,464.31,351.2,465.52,351.21z"/>
</g>
<path class="st7" d="M285.22,51.04c0.01-1.39-0.35-1.72-1.72-1.72c-50.78,0.04-101.57,0.03-152.35,0.04v-0.04h-5.06
	c-0.38-0.04-0.76-0.02-1.14,0h-2.44v0.06c-5.17,0.11-10.34,0.27-15.5,0.69c-9.75,0.81-19.36,2.31-28.73,5.21
	C57.4,61.76,42.93,74.86,36.3,96.03c-3.7,11.79-4.9,23.94-4.95,36.22c-0.07,16.01-0.06,32.02,0,48.03
	c0.03,10.46,1.02,20.82,3.72,30.97c3.39,12.76,9.37,23.97,19.52,32.69c8.25,7.08,17.89,11.45,28.27,14.35
	c9.35,2.61,18.91,3.89,28.57,4.52c4.89,0.32,9.78,0.5,14.69,0.35h1.02c0.43,0.02,0.85,0.07,1.28,0.07c46.59,0,93.18,0,139.77,0.03
	c1.23,0,1.6-0.26,1.59-1.55c-0.05-13.81-0.03-27.63-0.04-41.44c0-2.03,0.24-1.8-1.85-1.8c-44.81,0-89.61,0-134.42,0v-0.18h-6.99
	c-0.55-0.08-1.1,0-1.65,0c-6.64-0.04-13.21-0.58-19.65-2.32c-10.53-2.85-17.8-9.12-20.84-19.84c-1.3-4.6-1.98-9.32-2.08-14.08
	c-0.34-15.38-0.11-30.77-0.14-46.15c-0.01-5.62,0.35-11.22,1.54-16.75c2.34-10.84,8.54-18.25,19.17-21.77
	c4.45-1.47,9.04-2.21,13.69-2.67c3.46-0.34,6.93-0.18,10.39-0.47c0,0,0.11,0.02,0.11,0.02s0.03-0.02,0.05-0.05h4.08v-0.03
	c50.88,0,101.77,0,152.65,0.03c1.13,0,1.42-0.29,1.42-1.42C285.18,78.87,285.17,64.95,285.22,51.04z"/>
</svg>
